<svg xmlns="http://www.w3.org/2000/svg" width="340" height="63.719" viewBox="0 0 340 63.719">
  <g id="logo" transform="translate(-40.032 -18.928)">
    <g id="logo_brandmark" transform="translate(40.032 18.928)">
      <path id="Path_189" data-name="Path 189" d="M41.482,30.309c.038-2.166,2.787-3.983,6.256-3.933,3.315-.05,6.064,1.766,6.076,3.933-.011,2.316-2.761,4.133-6.076,4.111-3.469.022-6.218-1.795-6.256-4.111Z" transform="translate(-40.23 -19.943)" fill="#062554"/>
      <path id="Path_190" data-name="Path 190" d="M40.033,47.156V39.828H54.867V71.464h-8.4V47.156Z" transform="translate(-40.033 -21.725)" fill="#062554"/>
      <path id="Path_191" data-name="Path 191" d="M96.063,36.98a5.614,5.614,0,0,1-2.323-4.289c-.009-3.873,5.272-7.039,11.8-6.971,6.5-.067,11.785,3.1,11.8,6.971-.011,3.936-5.292,7.1-11.8,7.148a15.961,15.961,0,0,1-9.474-2.859v7.685a25.719,25.719,0,0,0,9.474,1.788c10.482-.009,18.989-6.152,18.945-13.762.043-7.547-8.463-13.69-18.945-13.763-10.5.073-19.01,6.216-18.947,13.763a9.056,9.056,0,0,0,.895,4.289Z" transform="translate(-46.375 -18.928)" fill="#ff7c00" fill-rule="evenodd"/>
      <path id="Path_192" data-name="Path 192" d="M72.57,83.947H67.386l1.966-13.405a11.034,11.034,0,0,0,5.183,1.608c7.336-.026,13.909-9.17,13.942-19.124-.033-5.524-1.766-9.468-4.111-9.474-3.153.005-8.412,4.487-12.333,10.546L73.82,43.731H72.212l-8.221,2.681v1.252h5L63.1,83.947H58.807l-.358,1.965H72.212l.358-1.965ZM70.426,63.928a18.316,18.316,0,0,1,3.217-8.4c2.85-4.081,6.375-7.308,8.042-7.327,1.2.019,1.979,2.051,1.967,5.361.012,8.344-4.291,16.053-8.936,16.086-1.868-.034-2.347-.273-4.827-2.5l.537-3.217Z" transform="translate(-42.542 -22.193)" fill="#062554" fill-rule="evenodd"/>
    </g>
    <g id="logo__text" transform="translate(136.612 29.588)">
      <path id="i" d="M152.31,31.558h3.313V48.487H152.31Z" transform="translate(-151.432 -31.219)" fill="#062554"/>
      <path id="n" d="M166.83,49.2V42.329a4.05,4.05,0,0,0-.423-2.128,1.582,1.582,0,0,0-1.439-.653,2.27,2.27,0,0,0-1.512.52,2.889,2.889,0,0,0-.882,1.294V49.2H159.43V37.1h2.491l.363,1.6h.1a5.205,5.205,0,0,1,1.475-1.354,4.372,4.372,0,0,1,2.369-.58,4.882,4.882,0,0,1,1.6.242,2.733,2.733,0,0,1,1.185.8,3.644,3.644,0,0,1,.726,1.512,9.822,9.822,0,0,1,.242,2.359V49.2Z" transform="translate(-152.402 -31.929)" fill="#062554"/>
      <path id="t" d="M173.13,36.658H174.8V34.385l3.143-.895v3.168h2.951v2.66h-2.951v4.644a4.618,4.618,0,0,0,.254,1.8.957.957,0,0,0,.956.544,3.155,3.155,0,0,0,.834-.1,5.684,5.684,0,0,0,.786-.29l.555,2.418a7.953,7.953,0,0,1-1.523.532,7.256,7.256,0,0,1-1.766.218,3.173,3.173,0,0,1-2.455-.859,4.11,4.11,0,0,1-.786-2.818V39.319H173.13Z" transform="translate(-154.268 -31.483)" fill="#062554"/>
      <path id="e" d="M193.652,48.157a6.175,6.175,0,0,1-1.971.979,8.634,8.634,0,0,1-2.648.4,5.135,5.135,0,0,1-4.281-1.705,7.328,7.328,0,0,1-1.354-4.68,6.7,6.7,0,0,1,1.523-4.789,5.637,5.637,0,0,1,4.281-1.6,6.652,6.652,0,0,1,1.791.242,4.187,4.187,0,0,1,1.548.8,3.936,3.936,0,0,1,1.087,1.5,5.871,5.871,0,0,1,.412,2.346,10.7,10.7,0,0,1-.06,1.088c-.041.387-.1.789-.181,1.209h-7.256a3.553,3.553,0,0,0,.786,2.3,3.012,3.012,0,0,0,2.31.774,5.148,5.148,0,0,0,2.976-.919Zm-4.5-8.877a2.206,2.206,0,0,0-1.827.739,3.653,3.653,0,0,0-.713,1.971h4.5a3.042,3.042,0,0,0-.4-2.007A1.778,1.778,0,0,0,189.154,39.28Z" transform="translate(-155.667 -31.929)" fill="#062554"/>
      <path id="r" d="M204.716,40.067a4.108,4.108,0,0,0-1.355-.266,2.215,2.215,0,0,0-1.414.447,2.155,2.155,0,0,0-.762,1.149v7.812h-3.144V37.116h2.442l.364,1.6h.1a3.293,3.293,0,0,1,1.113-1.379,2.824,2.824,0,0,1,1.645-.484,4.575,4.575,0,0,1,1.426.266Z" transform="translate(-157.662 -31.94)" fill="#062554"/>
      <path id="p" d="M207.814,37.1h2.3l.363,1.451h.1a4.012,4.012,0,0,1,1.487-1.354,4.589,4.589,0,0,1,2.093-.435,4.081,4.081,0,0,1,3.409,1.439,7.5,7.5,0,0,1,1.137,4.631,9.946,9.946,0,0,1-.363,2.793,5.884,5.884,0,0,1-1.076,2.116,4.692,4.692,0,0,1-1.74,1.33,6.521,6.521,0,0,1-3.592.351,4.26,4.26,0,0,1-.967-.351v4.958h-3.143Zm5.392,2.322a2.1,2.1,0,0,0-1.439.46,2.992,2.992,0,0,0-.81,1.379v5.03a2.579,2.579,0,0,0,1.791.58,2.324,2.324,0,0,0,2.031-.954,5.6,5.6,0,0,0,.677-3.156,4.757,4.757,0,0,0-.532-2.467A1.859,1.859,0,0,0,213.206,39.426Z" transform="translate(-158.994 -31.929)" fill="#062554"/>
      <path id="r-2" data-name="r" d="M229.384,40.067a4.108,4.108,0,0,0-1.355-.266,2.215,2.215,0,0,0-1.414.447,2.155,2.155,0,0,0-.762,1.149v7.812h-3.144V37.116h2.442l.364,1.6h.1a3.292,3.292,0,0,1,1.113-1.379,2.824,2.824,0,0,1,1.645-.484,4.575,4.575,0,0,1,1.426.266Z" transform="translate(-161.023 -31.94)" fill="#062554"/>
      <path id="o" d="M231.705,43.151a6.8,6.8,0,0,1,1.5-4.728,5.387,5.387,0,0,1,4.208-1.657,6.3,6.3,0,0,1,2.514.46,4.7,4.7,0,0,1,1.766,1.294,5.542,5.542,0,0,1,1.053,2.019,9.2,9.2,0,0,1,.35,2.612,6.838,6.838,0,0,1-1.487,4.728,5.345,5.345,0,0,1-4.2,1.657,6.306,6.306,0,0,1-2.515-.46,4.794,4.794,0,0,1-1.778-1.294,5.424,5.424,0,0,1-1.063-2.019A9.137,9.137,0,0,1,231.705,43.151Zm3.241,0a7.039,7.039,0,0,0,.145,1.475,4.145,4.145,0,0,0,.435,1.185,2.109,2.109,0,0,0,.762.786,2.173,2.173,0,0,0,1.125.277,2.067,2.067,0,0,0,1.838-.894,5.174,5.174,0,0,0,.6-2.83,5.663,5.663,0,0,0-.556-2.7,1.969,1.969,0,0,0-1.886-1.028,2.14,2.14,0,0,0-1.815.871A4.837,4.837,0,0,0,234.946,43.151Z" transform="translate(-162.249 -31.929)" fill="#062554"/>
      <path id="v" d="M250.891,43.494l.412,1.862h.121l.339-1.911,2.056-6.288H257.2L252.15,49.371h-1.911L244.99,37.158h3.653Z" transform="translate(-164.059 -31.982)" fill="#062554"/>
      <path id="i-2" data-name="i" d="M260.121,32.943a1.594,1.594,0,0,1,.521-1.2,2,2,0,0,1,1.439-.5,2.181,2.181,0,0,1,1.487.5,1.537,1.537,0,0,1,.568,1.2,1.466,1.466,0,0,1-.568,1.173,2.254,2.254,0,0,1-1.487.472,2.062,2.062,0,0,1-1.439-.472A1.517,1.517,0,0,1,260.121,32.943Zm.46,3.41h3.143V48.446h-3.143Z" transform="translate(-166.121 -31.177)" fill="#062554"/>
      <path id="n-2" data-name="n" d="M274.8,49.2V42.329a4.058,4.058,0,0,0-.423-2.128,1.583,1.583,0,0,0-1.439-.653,2.265,2.265,0,0,0-1.512.52,2.9,2.9,0,0,0-.884,1.294V49.2H267.4V37.1h2.491l.362,1.6h.1a5.206,5.206,0,0,1,1.475-1.354,4.373,4.373,0,0,1,2.37-.58,4.877,4.877,0,0,1,1.6.242,2.728,2.728,0,0,1,1.185.8,3.632,3.632,0,0,1,.725,1.512,9.772,9.772,0,0,1,.243,2.359V49.2Z" transform="translate(-167.112 -31.929)" fill="#062554"/>
      <path id="c" d="M290.972,48.447a5.242,5.242,0,0,1-1.753.81,8.082,8.082,0,0,1-2.115.278,5.876,5.876,0,0,1-2.456-.46,4.188,4.188,0,0,1-1.633-1.294,5.321,5.321,0,0,1-.906-2.019,11.415,11.415,0,0,1-.279-2.612,7.21,7.21,0,0,1,1.379-4.728,4.927,4.927,0,0,1,4.015-1.657,8.528,8.528,0,0,1,2.141.218,7.283,7.283,0,0,1,1.462.556l-.75,2.564a6.371,6.371,0,0,0-1.1-.411,4.858,4.858,0,0,0-1.246-.145,2.375,2.375,0,0,0-1.983.859,4.447,4.447,0,0,0-.677,2.745,5.661,5.661,0,0,0,.17,1.427,3.462,3.462,0,0,0,.507,1.137,2.364,2.364,0,0,0,.884.762,2.759,2.759,0,0,0,1.27.278,3.911,3.911,0,0,0,1.353-.206,4.725,4.725,0,0,0,.992-.5Z" transform="translate(-169.079 -31.929)" fill="#062554"/>
      <path id="i-3" data-name="i" d="M293.882,32.943a1.593,1.593,0,0,1,.52-1.2,2,2,0,0,1,1.439-.5,2.177,2.177,0,0,1,1.487.5,1.535,1.535,0,0,1,.569,1.2,1.464,1.464,0,0,1-.569,1.173,2.25,2.25,0,0,1-1.487.472,2.062,2.062,0,0,1-1.439-.472A1.516,1.516,0,0,1,293.882,32.943Zm.459,3.41h3.145V48.446h-3.145Z" transform="translate(-170.721 -31.177)" fill="#062554"/>
      <path id="a" d="M300.954,37.82a10.393,10.393,0,0,1,2.3-.688,14.8,14.8,0,0,1,2.78-.254,6.326,6.326,0,0,1,2.1.3,3.033,3.033,0,0,1,2.044,2.188,6.831,6.831,0,0,1,.2,1.742q0,1.064-.073,2.14t-.084,2.116q-.013,1.04.06,2.019a7.565,7.565,0,0,0,.363,1.85h-2.564l-.509-1.669h-.12a4.313,4.313,0,0,1-1.342,1.294,4.074,4.074,0,0,1-2.213.544,4.31,4.31,0,0,1-1.524-.254,3.257,3.257,0,0,1-1.911-1.838,3.709,3.709,0,0,1-.267-1.439A3.362,3.362,0,0,1,300.7,44a3.58,3.58,0,0,1,1.427-1.233,7.082,7.082,0,0,1,2.225-.653,15.761,15.761,0,0,1,2.89-.109,3.145,3.145,0,0,0-.193-1.947q-.363-.593-1.62-.593a11.073,11.073,0,0,0-2,.193,7.3,7.3,0,0,0-1.729.508Zm3.991,9a2.422,2.422,0,0,0,1.5-.423,2.96,2.96,0,0,0,.822-.907V43.916a8.589,8.589,0,0,0-1.439-.024,5.307,5.307,0,0,0-1.221.218,2.048,2.048,0,0,0-.846.484,1.08,1.08,0,0,0-.314.8,1.372,1.372,0,0,0,.4,1.052A1.541,1.541,0,0,0,304.944,46.818Z" transform="translate(-171.582 -31.944)" fill="#062554"/>
      <path id="a-2" data-name="a" d="M314.559,37.82a10.407,10.407,0,0,1,2.3-.688,14.816,14.816,0,0,1,2.781-.254,6.32,6.32,0,0,1,2.1.3,3.036,3.036,0,0,1,2.044,2.188,6.829,6.829,0,0,1,.2,1.742q0,1.064-.073,2.14t-.085,2.116q-.013,1.04.061,2.019a7.563,7.563,0,0,0,.362,1.85h-2.563l-.509-1.669h-.121a4.3,4.3,0,0,1-1.342,1.294,4.072,4.072,0,0,1-2.213.544,4.316,4.316,0,0,1-1.524-.254,3.263,3.263,0,0,1-1.911-1.838,3.709,3.709,0,0,1-.266-1.439A3.362,3.362,0,0,1,314.3,44a3.592,3.592,0,0,1,1.427-1.233,7.087,7.087,0,0,1,2.226-.653,15.755,15.755,0,0,1,2.889-.109,3.147,3.147,0,0,0-.193-1.947q-.364-.593-1.62-.593a11.082,11.082,0,0,0-2,.193,7.325,7.325,0,0,0-1.729.508Zm3.991,9a2.419,2.419,0,0,0,1.5-.423,2.964,2.964,0,0,0,.823-.907V43.916a8.591,8.591,0,0,0-1.439-.024,5.315,5.315,0,0,0-1.222.218,2.048,2.048,0,0,0-.846.484,1.083,1.083,0,0,0-.314.8,1.369,1.369,0,0,0,.4,1.052A1.538,1.538,0,0,0,318.549,46.818Z" transform="translate(-173.436 -31.944)" fill="#062554"/>
      <path id="l" d="M331.532,44.424a2.631,2.631,0,0,0,.218,1.233.744.744,0,0,0,.7.387,3.343,3.343,0,0,0,.568-.048,3.406,3.406,0,0,0,.689-.218l.339,2.467a5.963,5.963,0,0,1-1.185.387,6.973,6.973,0,0,1-1.645.193,3.087,3.087,0,0,1-2.1-.641,2.7,2.7,0,0,1-.726-2.116V31.558h3.144Z" transform="translate(-175.422 -31.219)" fill="#062554"/>
      <path id="o-2" data-name="o" d="M342.948,39.969a10.075,10.075,0,0,1,1.862-6.518,6.469,6.469,0,0,1,5.321-2.285,7.462,7.462,0,0,1,3.168.629,5.979,5.979,0,0,1,2.249,1.79,7.816,7.816,0,0,1,1.33,2.781,13.888,13.888,0,0,1,.435,3.6,10.029,10.029,0,0,1-1.874,6.518,6.479,6.479,0,0,1-5.309,2.285,7.524,7.524,0,0,1-3.192-.629,5.865,5.865,0,0,1-2.237-1.79,7.932,7.932,0,0,1-1.318-2.781A13.883,13.883,0,0,1,342.948,39.969Zm3.483,0a11.908,11.908,0,0,0,.218,2.358,6.071,6.071,0,0,0,.665,1.85,3.372,3.372,0,0,0,1.149,1.209,3.1,3.1,0,0,0,1.669.435,3.145,3.145,0,0,0,2.733-1.379,7.976,7.976,0,0,0,.967-4.474,12.162,12.162,0,0,0-.206-2.3,6.394,6.394,0,0,0-.641-1.862,3.343,3.343,0,0,0-1.137-1.246,3.405,3.405,0,0,0-4.45.967A8,8,0,0,0,346.431,39.969Z" transform="translate(-177.406 -31.166)" fill="#062554"/>
      <path id="v-2" data-name="v" d="M366.419,43.494l.41,1.862h.121l.339-1.911,2.056-6.288h3.385l-5.054,12.213h-1.911l-5.247-12.213h3.651Z" transform="translate(-179.8 -31.982)" fill="#062554"/>
      <path id="e-2" data-name="e" d="M385.054,48.157a6.139,6.139,0,0,1-1.971.979,8.63,8.63,0,0,1-2.648.4,5.137,5.137,0,0,1-4.281-1.705,7.328,7.328,0,0,1-1.354-4.68,6.693,6.693,0,0,1,1.525-4.789,5.633,5.633,0,0,1,4.28-1.6,6.641,6.641,0,0,1,1.79.242,4.18,4.18,0,0,1,1.548.8,3.947,3.947,0,0,1,1.088,1.5,5.888,5.888,0,0,1,.411,2.346,10.46,10.46,0,0,1-.06,1.088c-.041.387-.1.789-.181,1.209h-7.255a3.538,3.538,0,0,0,.785,2.3,3.011,3.011,0,0,0,2.311.774,5.147,5.147,0,0,0,2.974-.919Zm-4.5-8.877a2.2,2.2,0,0,0-1.826.739,3.639,3.639,0,0,0-.713,1.971h4.5a3.047,3.047,0,0,0-.4-2.007A1.78,1.78,0,0,0,380.556,39.28Z" transform="translate(-181.746 -31.929)" fill="#062554"/>
      <path id="r-3" data-name="r" d="M396.119,40.067a4.1,4.1,0,0,0-1.354-.266,2.218,2.218,0,0,0-1.415.447,2.155,2.155,0,0,0-.762,1.149v7.812h-3.144V37.116h2.443l.363,1.6h.1a3.293,3.293,0,0,1,1.113-1.379,2.826,2.826,0,0,1,1.645-.484,4.588,4.588,0,0,1,1.427.266Z" transform="translate(-183.741 -31.94)" fill="#062554"/>
      <path id="l-2" data-name="l" d="M402.412,44.424a2.631,2.631,0,0,0,.218,1.233.746.746,0,0,0,.7.387A3.343,3.343,0,0,0,403.9,46a3.405,3.405,0,0,0,.689-.218l.339,2.467a5.954,5.954,0,0,1-1.186.387,6.965,6.965,0,0,1-1.644.193,3.086,3.086,0,0,1-2.1-.641,2.7,2.7,0,0,1-.726-2.116V31.558h3.143Z" transform="translate(-185.08 -31.219)" fill="#062554"/>
      <path id="e-3" data-name="e" d="M416.841,48.157a6.138,6.138,0,0,1-1.971.979,8.624,8.624,0,0,1-2.647.4,5.138,5.138,0,0,1-4.282-1.705,7.333,7.333,0,0,1-1.354-4.68,6.693,6.693,0,0,1,1.525-4.789,5.635,5.635,0,0,1,4.28-1.6,6.641,6.641,0,0,1,1.79.242,4.18,4.18,0,0,1,1.548.8,3.928,3.928,0,0,1,1.088,1.5,5.887,5.887,0,0,1,.411,2.346,10.46,10.46,0,0,1-.06,1.088c-.041.387-.1.789-.181,1.209h-7.255a3.538,3.538,0,0,0,.785,2.3,3.011,3.011,0,0,0,2.311.774A5.148,5.148,0,0,0,415.8,46.1Zm-4.5-8.877a2.2,2.2,0,0,0-1.826.739,3.646,3.646,0,0,0-.713,1.971h4.5a3.047,3.047,0,0,0-.4-2.007A1.78,1.78,0,0,0,412.343,39.28Z" transform="translate(-186.077 -31.929)" fill="#062554"/>
      <path id="g" d="M431.407,49.2a4.887,4.887,0,0,1-1.428,3.882,5.872,5.872,0,0,1-3.991,1.246,12.238,12.238,0,0,1-2.745-.242,6.933,6.933,0,0,1-1.512-.508l.653-2.491q.556.218,1.294.435a6.55,6.55,0,0,0,1.827.218,2.815,2.815,0,0,0,2.236-.713,3.039,3.039,0,0,0,.593-2v-.774h-.1a3.517,3.517,0,0,1-3,1.137,4.185,4.185,0,0,1-3.495-1.451,7.3,7.3,0,0,1-1.149-4.547,6.982,6.982,0,0,1,1.548-4.91,5.834,5.834,0,0,1,4.5-1.669,15.884,15.884,0,0,1,2.769.218,11.676,11.676,0,0,1,2,.508Zm-5.322-2.323a2.163,2.163,0,0,0,1.415-.41,2.583,2.583,0,0,0,.762-1.233V39.8a4.828,4.828,0,0,0-1.862-.314,2.22,2.22,0,0,0-1.886.907,4.881,4.881,0,0,0-.677,2.89,5.074,5.074,0,0,0,.58,2.685A1.859,1.859,0,0,0,426.085,46.882Z" transform="translate(-187.986 -31.937)" fill="#062554"/>
      <path id="v-3" data-name="v" d="M155.689,74.232l.58,1.968h.02l.519-2.01,2.321-6.032h1.784L156.5,78.751h-.706l-4.5-10.593H153.2Z" transform="translate(-151.293 -36.206)" fill="#062554"/>
      <path id="a-3" data-name="a" d="M164.191,68.9a5.972,5.972,0,0,1,1.835-.7,10.252,10.252,0,0,1,2.188-.228,4.313,4.313,0,0,1,1.73.29,2.418,2.418,0,0,1,1,.756,2.6,2.6,0,0,1,.456,1.027,5.6,5.6,0,0,1,.114,1.119q0,1.244-.061,2.425t-.063,2.24q0,.767.063,1.451a6.853,6.853,0,0,0,.227,1.265h-1.223l-.435-1.451h-.1a3.441,3.441,0,0,1-.466.57,2.962,2.962,0,0,1-.674.5,4.21,4.21,0,0,1-.912.364,4.39,4.39,0,0,1-1.182.145,3.6,3.6,0,0,1-1.233-.207,2.881,2.881,0,0,1-.985-.591,2.763,2.763,0,0,1-.653-.922,3,3,0,0,1-.238-1.223,2.883,2.883,0,0,1,.372-1.525,2.7,2.7,0,0,1,1.047-.973,5.173,5.173,0,0,1,1.617-.518,12.856,12.856,0,0,1,2.083-.155h.57a4.05,4.05,0,0,1,.571.041q.061-.622.061-1.119a2.23,2.23,0,0,0-.455-1.6,2.337,2.337,0,0,0-1.658-.456,5.81,5.81,0,0,0-.757.054c-.27.035-.547.085-.829.149a6.916,6.916,0,0,0-.809.234,4.2,4.2,0,0,0-.674.309Zm2.944,8.313a3.213,3.213,0,0,0,1.037-.155,2.98,2.98,0,0,0,.787-.394,2.514,2.514,0,0,0,.55-.529,2.385,2.385,0,0,0,.321-.56V73.853c-.194-.014-.391-.023-.592-.031s-.4-.01-.591-.01a10.638,10.638,0,0,0-1.254.073,3.987,3.987,0,0,0-1.078.269,1.894,1.894,0,0,0-.746.539,1.313,1.313,0,0,0-.279.86,1.531,1.531,0,0,0,.517,1.192A1.908,1.908,0,0,0,167.135,77.212Z" transform="translate(-152.966 -36.18)" fill="#062554"/>
      <path id="n-3" data-name="n" d="M182.7,78.484V72.576a5.039,5.039,0,0,0-.466-2.436,1.8,1.8,0,0,0-1.71-.819,2.752,2.752,0,0,0-1.814.591,3.141,3.141,0,0,0-1.005,1.482v7.09h-1.658V68.119H177.2l.31,1.265h.084a3.746,3.746,0,0,1,1.337-1.088,4.382,4.382,0,0,1,2-.425,5.107,5.107,0,0,1,1.493.2,2.234,2.234,0,0,1,1.068.694,3.332,3.332,0,0,1,.643,1.337,8.657,8.657,0,0,1,.218,2.125v6.26Z" transform="translate(-154.665 -36.167)" fill="#062554"/>
      <path id="_" data-name="," d="M188.5,78.949a1.058,1.058,0,0,1,.332-.808,1.192,1.192,0,0,1,.85-.311,1.339,1.339,0,0,1,1.047.456,1.945,1.945,0,0,1,.4,1.327,3.736,3.736,0,0,1-.208,1.306,3.326,3.326,0,0,1-.539.964,3.274,3.274,0,0,1-.725.663,3.184,3.184,0,0,1-.789.383l-.517-.808a2.143,2.143,0,0,0,1.109-.9,2.4,2.4,0,0,0,.363-1.233,1.12,1.12,0,0,1-.352.062.942.942,0,0,1-.694-.28A1.11,1.11,0,0,1,188.5,78.949Z" transform="translate(-156.342 -37.524)" fill="#062554"/>
      <path id="v-4" data-name="v" d="M201.987,74.232l.58,1.968h.02l.519-2.01,2.321-6.032h1.784l-4.416,10.593h-.7l-4.5-10.593H199.5Z" transform="translate(-157.601 -36.206)" fill="#062554"/>
      <path id="o-3" data-name="o" d="M209.716,73.3a6.126,6.126,0,0,1,1.171-4.032,4.146,4.146,0,0,1,3.369-1.4,4.932,4.932,0,0,1,2.021.384,3.667,3.667,0,0,1,1.42,1.1,4.75,4.75,0,0,1,.829,1.721A8.6,8.6,0,0,1,218.8,73.3a6.126,6.126,0,0,1-1.171,4.032,4.146,4.146,0,0,1-3.369,1.4,4.926,4.926,0,0,1-2.021-.384,3.658,3.658,0,0,1-1.419-1.1,4.744,4.744,0,0,1-.83-1.721A8.6,8.6,0,0,1,209.716,73.3Zm1.721,0a7.206,7.206,0,0,0,.155,1.513,3.989,3.989,0,0,0,.487,1.265,2.622,2.622,0,0,0,.871.871,2.445,2.445,0,0,0,1.306.332q2.819.021,2.819-3.98a7.308,7.308,0,0,0-.155-1.534,4.009,4.009,0,0,0-.487-1.265,2.416,2.416,0,0,0-2.177-1.182Q211.437,69.3,211.437,73.3Z" transform="translate(-159.253 -36.167)" fill="#062554"/>
      <path id="o-4" data-name="o" d="M222.446,73.3a6.126,6.126,0,0,1,1.171-4.032,4.143,4.143,0,0,1,3.368-1.4,4.929,4.929,0,0,1,2.021.384,3.676,3.676,0,0,1,1.421,1.1,4.764,4.764,0,0,1,.829,1.721,8.6,8.6,0,0,1,.269,2.228,6.13,6.13,0,0,1-1.17,4.032,4.148,4.148,0,0,1-3.369,1.4,4.925,4.925,0,0,1-2.02-.384,3.661,3.661,0,0,1-1.42-1.1,4.744,4.744,0,0,1-.83-1.721A8.6,8.6,0,0,1,222.446,73.3Zm1.721,0a7.2,7.2,0,0,0,.155,1.513,3.99,3.99,0,0,0,.488,1.265,2.622,2.622,0,0,0,.871.871,2.444,2.444,0,0,0,1.305.332q2.819.021,2.819-3.98a7.308,7.308,0,0,0-.155-1.534,4.009,4.009,0,0,0-.486-1.265,2.548,2.548,0,0,0-.872-.86,2.515,2.515,0,0,0-1.306-.321Q224.167,69.3,224.167,73.3Z" transform="translate(-160.988 -36.167)" fill="#062554"/>
      <path id="r-4" data-name="r" d="M240.633,69.722a3.738,3.738,0,0,0-1.182-.207,1.975,1.975,0,0,0-1.41.487,2.12,2.12,0,0,0-.643,1.233V78.49h-1.658V68.125H236.9l.311,1.265h.083a3.2,3.2,0,0,1,.943-1.088,2.389,2.389,0,0,1,1.4-.383,5.08,5.08,0,0,1,1.347.207Z" transform="translate(-162.799 -36.174)" fill="#062554"/>
      <path id="e-4" data-name="e" d="M257.688,77.655a4.684,4.684,0,0,1-1.565.788,6.766,6.766,0,0,1-2,.29,5.059,5.059,0,0,1-2.052-.384,3.642,3.642,0,0,1-1.43-1.1,4.75,4.75,0,0,1-.83-1.71,8.57,8.57,0,0,1-.269-2.239,6.083,6.083,0,0,1,1.182-4.042,4.193,4.193,0,0,1,3.38-1.389,6.53,6.53,0,0,1,1.409.155,2.978,2.978,0,0,1,2.177,1.824,5.273,5.273,0,0,1,.352,2.1,10.373,10.373,0,0,1-.124,1.513h-6.655a6.38,6.38,0,0,0,.187,1.617,3.151,3.151,0,0,0,.58,1.192,2.516,2.516,0,0,0,1.027.746,4.072,4.072,0,0,0,1.544.259,4.216,4.216,0,0,0,1.41-.249,3.007,3.007,0,0,0,1.056-.58Zm-3.566-8.333a2.877,2.877,0,0,0-1.959.643,3.216,3.216,0,0,0-.881,2.2h5.141a3.186,3.186,0,0,0-.6-2.208A2.237,2.237,0,0,0,254.122,69.321Z" transform="translate(-164.679 -36.167)" fill="#062554"/>
      <path id="n-4" data-name="n" d="M268.782,78.484V72.576a5.039,5.039,0,0,0-.466-2.436,1.8,1.8,0,0,0-1.71-.819,2.751,2.751,0,0,0-1.814.591,3.141,3.141,0,0,0-1.005,1.482v7.09h-1.658V68.119h1.161l.31,1.265h.084a3.747,3.747,0,0,1,1.337-1.088,4.382,4.382,0,0,1,2-.425,5.111,5.111,0,0,1,1.493.2,2.234,2.234,0,0,1,1.068.694,3.332,3.332,0,0,1,.643,1.337,8.657,8.657,0,0,1,.218,2.125v6.26Z" transform="translate(-166.395 -36.167)" fill="#062554"/>
      <path id="d" d="M289.438,74.3q0,1.057.021,1.918a9.722,9.722,0,0,0,.187,1.689h-1.119l-.415-1.472h-.083a3.354,3.354,0,0,1-1.2,1.2,3.5,3.5,0,0,1-1.845.477,3.639,3.639,0,0,1-3.078-1.306,6.693,6.693,0,0,1-1.005-4.084,5.8,5.8,0,0,1,1.254-4.032,4.432,4.432,0,0,1,3.452-1.379,6.955,6.955,0,0,1,1.213.083,6.2,6.2,0,0,1,.963.269V63.358h1.659Zm-4.187,2.363a2.445,2.445,0,0,0,1.679-.549,2.926,2.926,0,0,0,.849-1.669V69.308a2.313,2.313,0,0,0-.849-.415,5.183,5.183,0,0,0-1.265-.124,2.793,2.793,0,0,0-2.24.943,4.6,4.6,0,0,0-.808,3.016,8.639,8.639,0,0,0,.135,1.575,3.7,3.7,0,0,0,.446,1.243,2.312,2.312,0,0,0,.819.82A2.379,2.379,0,0,0,285.25,76.667Z" transform="translate(-168.952 -35.552)" fill="#062554"/>
      <path id="o-5" data-name="o" d="M293.535,73.3a6.126,6.126,0,0,1,1.172-4.032,4.144,4.144,0,0,1,3.368-1.4,4.933,4.933,0,0,1,2.022.384,3.674,3.674,0,0,1,1.42,1.1,4.764,4.764,0,0,1,.829,1.721,8.6,8.6,0,0,1,.27,2.228,6.13,6.13,0,0,1-1.171,4.032,4.148,4.148,0,0,1-3.37,1.4,4.932,4.932,0,0,1-2.021-.384,3.658,3.658,0,0,1-1.419-1.1,4.729,4.729,0,0,1-.829-1.721A8.6,8.6,0,0,1,293.535,73.3Zm1.721,0a7.2,7.2,0,0,0,.155,1.513,3.989,3.989,0,0,0,.488,1.265,2.623,2.623,0,0,0,.871.871,2.442,2.442,0,0,0,1.305.332q2.819.021,2.82-3.98a7.308,7.308,0,0,0-.156-1.534,3.968,3.968,0,0,0-.486-1.265,2.416,2.416,0,0,0-2.178-1.182Q295.256,69.3,295.256,73.3Z" transform="translate(-170.674 -36.167)" fill="#062554"/>
      <path id="o-6" data-name="o" d="M306.265,73.3a6.126,6.126,0,0,1,1.171-4.032,4.146,4.146,0,0,1,3.369-1.4,4.936,4.936,0,0,1,2.022.384,3.671,3.671,0,0,1,1.419,1.1,4.751,4.751,0,0,1,.829,1.721,8.6,8.6,0,0,1,.27,2.228,6.131,6.131,0,0,1-1.172,4.032,4.146,4.146,0,0,1-3.369,1.4,4.929,4.929,0,0,1-2.021-.384,3.667,3.667,0,0,1-1.42-1.1,4.744,4.744,0,0,1-.829-1.721A8.6,8.6,0,0,1,306.265,73.3Zm1.721,0a7.2,7.2,0,0,0,.155,1.513,3.988,3.988,0,0,0,.487,1.265,2.622,2.622,0,0,0,.871.871,2.445,2.445,0,0,0,1.306.332q2.819.021,2.819-3.98a7.308,7.308,0,0,0-.155-1.534,3.969,3.969,0,0,0-.487-1.265,2.416,2.416,0,0,0-2.177-1.182Q307.986,69.3,307.986,73.3Z" transform="translate(-172.408 -36.167)" fill="#062554"/>
      <path id="r-5" data-name="r" d="M324.453,69.722a3.738,3.738,0,0,0-1.182-.207,1.975,1.975,0,0,0-1.41.487,2.12,2.12,0,0,0-.643,1.233V78.49h-1.658V68.125h1.161l.311,1.265h.084a3.185,3.185,0,0,1,.942-1.088,2.389,2.389,0,0,1,1.4-.383,5.085,5.085,0,0,1,1.347.207Z" transform="translate(-174.22 -36.174)" fill="#062554"/>
      <path id="p-2" data-name="p" d="M334.033,68.119h1.141l.311,1.244h.083a3.171,3.171,0,0,1,1.233-1.109,4.364,4.364,0,0,1,4.82.84,6.266,6.266,0,0,1,1.015,4,7.555,7.555,0,0,1-.341,2.353,5.131,5.131,0,0,1-.964,1.772,4.211,4.211,0,0,1-1.5,1.119,4.74,4.74,0,0,1-1.958.394,6.191,6.191,0,0,1-1.213-.093,4.946,4.946,0,0,1-.965-.321V82.63h-1.658Zm4.188,1.2a2.408,2.408,0,0,0-1.67.549,3.08,3.08,0,0,0-.86,1.669V76.68a2.756,2.756,0,0,0,.851.446,4.188,4.188,0,0,0,1.265.155,2.736,2.736,0,0,0,2.27-1.068,5.006,5.006,0,0,0,.84-3.141,7.57,7.57,0,0,0-.145-1.544,3.4,3.4,0,0,0-.466-1.182,2.241,2.241,0,0,0-.829-.757A2.651,2.651,0,0,0,338.221,69.321Z" transform="translate(-176.192 -36.167)" fill="#062554"/>
      <path id="r-6" data-name="r" d="M351.69,69.722a3.73,3.73,0,0,0-1.182-.207A1.977,1.977,0,0,0,349.1,70a2.13,2.13,0,0,0-.643,1.233V78.49H346.8V68.125h1.162l.31,1.265h.084A3.188,3.188,0,0,1,349.3,68.3a2.387,2.387,0,0,1,1.4-.383,5.079,5.079,0,0,1,1.347.207Z" transform="translate(-177.931 -36.174)" fill="#062554"/>
      <path id="o-7" data-name="o" d="M354.018,73.3a6.126,6.126,0,0,1,1.171-4.032,4.146,4.146,0,0,1,3.369-1.4,4.932,4.932,0,0,1,2.021.384,3.667,3.667,0,0,1,1.42,1.1,4.75,4.75,0,0,1,.829,1.721A8.6,8.6,0,0,1,363.1,73.3a6.131,6.131,0,0,1-1.171,4.032,4.146,4.146,0,0,1-3.369,1.4,4.929,4.929,0,0,1-2.021-.384,3.667,3.667,0,0,1-1.42-1.1,4.743,4.743,0,0,1-.829-1.721A8.6,8.6,0,0,1,354.018,73.3Zm1.721,0a7.206,7.206,0,0,0,.155,1.513,3.988,3.988,0,0,0,.487,1.265,2.623,2.623,0,0,0,.871.871,2.445,2.445,0,0,0,1.306.332q2.818.021,2.819-3.98a7.308,7.308,0,0,0-.155-1.534,3.968,3.968,0,0,0-.487-1.265,2.416,2.416,0,0,0-2.177-1.182Q355.739,69.3,355.739,73.3Z" transform="translate(-178.915 -36.167)" fill="#062554"/>
      <path id="v-5" data-name="v" d="M369.9,74.232l.58,1.968h.021l.518-2.01,2.322-6.032h1.783L370.71,78.751h-.7l-4.5-10.593h1.907Z" transform="translate(-180.48 -36.206)" fill="#062554"/>
      <path id="i-4" data-name="i" d="M378.5,64.327a1.154,1.154,0,0,1,.321-.819,1.076,1.076,0,0,1,.82-.342,1.179,1.179,0,0,1,.85.342,1.1,1.1,0,0,1,.352.819,1.006,1.006,0,0,1-.352.788,1.243,1.243,0,0,1-.85.311,1.131,1.131,0,0,1-.82-.311A1.048,1.048,0,0,1,378.5,64.327Zm.352,3.151h1.658V77.843H378.85Z" transform="translate(-182.25 -35.526)" fill="#062554"/>
      <path id="n-5" data-name="n" d="M391.054,78.484V72.576a5.038,5.038,0,0,0-.466-2.436,1.8,1.8,0,0,0-1.71-.819,2.753,2.753,0,0,0-1.814.591,3.147,3.147,0,0,0-1.005,1.482v7.09H384.4V68.119h1.161l.311,1.265h.083a3.754,3.754,0,0,1,1.337-1.088,4.382,4.382,0,0,1,2-.425,5.106,5.106,0,0,1,1.493.2,2.243,2.243,0,0,1,1.068.694A3.309,3.309,0,0,1,392.5,70.1a8.657,8.657,0,0,1,.218,2.125v6.26Z" transform="translate(-183.054 -36.167)" fill="#062554"/>
      <path id="c-2" data-name="c" d="M404.352,77.8a4.532,4.532,0,0,1-1.472.694,6.611,6.611,0,0,1-1.784.238,4.819,4.819,0,0,1-2.031-.384,3.472,3.472,0,0,1-1.359-1.1,4.662,4.662,0,0,1-.766-1.721A9.618,9.618,0,0,1,396.7,73.3a6.169,6.169,0,0,1,1.161-4.032,4.093,4.093,0,0,1,3.338-1.4,7.854,7.854,0,0,1,1.689.155,5.2,5.2,0,0,1,1.255.446l-.477,1.43a4.517,4.517,0,0,0-1.058-.425,4.784,4.784,0,0,0-1.243-.155q-2.945,0-2.944,3.98a7.058,7.058,0,0,0,.155,1.5,3.7,3.7,0,0,0,.519,1.265,2.708,2.708,0,0,0,.953.881,2.953,2.953,0,0,0,1.462.332,3.691,3.691,0,0,0,1.337-.228,3.793,3.793,0,0,0,.964-.518Z" transform="translate(-184.73 -36.167)" fill="#062554"/>
      <path id="i-5" data-name="i" d="M407.684,64.327a1.154,1.154,0,0,1,.321-.819,1.074,1.074,0,0,1,.819-.342,1.18,1.18,0,0,1,.851.342,1.1,1.1,0,0,1,.352.819,1.006,1.006,0,0,1-.352.788,1.244,1.244,0,0,1-.851.311,1.129,1.129,0,0,1-.819-.311A1.048,1.048,0,0,1,407.684,64.327Zm.352,3.151h1.658V77.843h-1.658Z" transform="translate(-186.227 -35.526)" fill="#062554"/>
      <path id="e-5" data-name="e" d="M421.089,77.655a4.692,4.692,0,0,1-1.565.788,6.77,6.77,0,0,1-2,.29,5.067,5.067,0,0,1-2.053-.384,3.649,3.649,0,0,1-1.43-1.1,4.736,4.736,0,0,1-.829-1.71,8.57,8.57,0,0,1-.27-2.239,6.083,6.083,0,0,1,1.182-4.042A4.192,4.192,0,0,1,417.5,67.87a6.527,6.527,0,0,1,1.41.155,2.978,2.978,0,0,1,2.177,1.824,5.274,5.274,0,0,1,.352,2.1,10.255,10.255,0,0,1-.124,1.513h-6.654a6.342,6.342,0,0,0,.187,1.617,3.151,3.151,0,0,0,.58,1.192,2.513,2.513,0,0,0,1.026.746,4.074,4.074,0,0,0,1.544.259,4.212,4.212,0,0,0,1.41-.249,3,3,0,0,0,1.057-.58Zm-3.566-8.333a2.875,2.875,0,0,0-1.959.643,3.212,3.212,0,0,0-.881,2.2h5.14a3.186,3.186,0,0,0-.6-2.208A2.235,2.235,0,0,0,417.523,69.321Z" transform="translate(-186.943 -36.167)" fill="#062554"/>
      <path id="s" d="M430.009,75.664a1.275,1.275,0,0,0-.373-.974,3.16,3.16,0,0,0-.922-.591q-.549-.238-1.2-.456a5.619,5.619,0,0,1-1.2-.56,3.114,3.114,0,0,1-.922-.881,2.509,2.509,0,0,1-.373-1.451,2.662,2.662,0,0,1,.85-2.187,3.632,3.632,0,0,1,2.363-.694,7.585,7.585,0,0,1,1.876.2,7.26,7.26,0,0,1,1.316.466l-.394,1.368a6.519,6.519,0,0,0-1.151-.4,5.681,5.681,0,0,0-1.441-.176,2.283,2.283,0,0,0-1.337.311,1.249,1.249,0,0,0-.425,1.078,1.018,1.018,0,0,0,.373.84,4.008,4.008,0,0,0,.923.539q.548.238,1.2.466a5.151,5.151,0,0,1,1.2.6,3.334,3.334,0,0,1,.922.943,2.705,2.705,0,0,1,.373,1.5,3.505,3.505,0,0,1-.218,1.243,2.512,2.512,0,0,1-.675,1,3.28,3.28,0,0,1-1.129.653,4.783,4.783,0,0,1-1.586.238,7.669,7.669,0,0,1-2.011-.228,6.362,6.362,0,0,1-1.39-.539l.5-1.41a6.049,6.049,0,0,0,1.244.5,5.424,5.424,0,0,0,1.555.228,2.791,2.791,0,0,0,1.472-.352A1.359,1.359,0,0,0,430.009,75.664Z" transform="translate(-188.54 -36.167)" fill="#062554"/>
    </g>
  </g>
</svg>
