<?xml version="1.0" encoding="UTF-8"?>
<svg id="Layer_2" data-name="Layer 2" xmlns="http://www.w3.org/2000/svg" viewBox="0 0 331.17 83.79">
  <defs>
    <style>
      .cls-1 {
        fill: #072729;
      }

      .cls-2 {
        fill: none;
        opacity: .5;
      }
    </style>
  </defs>
  <g id="Layer_1-2" data-name="Layer 1">
    <g>
      <rect class="cls-2" width="331.17" height="83.79"/>
      <g>
        <g>
          <path class="cls-1" d="M74.92,23.73l-3.66,10.05h-32.18c-1.42,0-2.27.59-2.75,1.93l-5.21,14.29h-9.12c-4.69,0-6.87-3.11-5.26-7.52l3.17-8.7,3.59-9.86c1.94-5.34,5.33-7.71,11.01-7.71h35.15c4.69,0,6.87,3.11,5.26,7.52Z"/>
          <path class="cls-1" d="M56.8,50l-3.59,9.86c-1.94,5.34-5.33,7.71-11.01,7.71h-9.48c-4.69,0-6.87-3.11-5.26-7.51l3.66-10.05h25.68Z"/>
        </g>
        <g>
          <path class="cls-1" d="M91.85,62.59c-6.7,0-11.57-5.01-11.57-11.91s4.87-11.91,11.57-11.91c4.63,0,8.49,2.43,10.13,6.36l5.27-2.75c-2.81-5.87-8.4-9.23-15.39-9.23-10.21,0-17.63,7.37-17.63,17.53s7.39,17.53,17.58,17.53c7.48,0,13.79-4.23,16.15-10.78l-5.36-2.52c-1.44,4.68-5.62,7.69-10.74,7.69Z"/>
          <rect class="cls-1" x="112.53" y="31.34" width="5.62" height="36.23"/>
          <path class="cls-1" d="M134.17,42.07c-5.03,0-8.78,2.58-10.07,6.92l4.94,1.38c.46-1.72,2.04-3.61,5.13-3.61s5.3,2.04,5.3,4.96v.89h-7.41c-5.56,0-9.15,3.01-9.15,7.68s3.5,7.93,8.51,7.93c3.61,0,8.04-1.84,8.53-5.37v4.73h4.98v-15.86c0-4.64-3.37-9.64-10.77-9.64ZM139.47,57.54c0,2.99-1.71,6.18-6.52,6.18-2.57,0-4.37-1.47-4.37-3.58s1.6-3.49,4.27-3.49h6.62v.89Z"/>
          <path class="cls-1" d="M218.5,39.17c0-1.88,1.15-3.05,3-3.05h2.69v-4.78h-3.18c-3.88,0-8.03,2.08-8.03,7.93v3.44h-5v4.69h4.9v20.18h5.62v-20.18h6.76v-4.69h-6.76v-3.54Z"/>
          <path class="cls-1" d="M240.79,42.07c-7.75,0-13.37,5.5-13.37,13.07s5.62,13.07,13.37,13.07,13.36-5.62,13.36-13.07-5.75-13.07-13.36-13.07ZM240.79,63.13c-4.5,0-7.65-3.29-7.65-7.99s3.22-7.99,7.65-7.99,7.65,3.36,7.65,7.99-3.15,7.99-7.65,7.99Z"/>
          <path class="cls-1" d="M306.87,42.07c-3.5,0-6.9,2.33-7.74,5.3l-.23.83-.25-.82c-1.03-3.37-3.71-5.31-7.35-5.31s-7.45,2.37-8.14,5.29v-4.65h-5.62v24.87h5.62v-14.49c0-3.27,2.17-5.64,5.15-5.64s5.2,2.22,5.2,5.4v14.74h5.62v-14.49c0-3.32,2.1-5.64,5.1-5.64s5.1,2.12,5.1,5.4v14.74h5.62v-16.89c0-3.97-2.11-8.61-8.07-8.61Z"/>
          <path class="cls-1" d="M164.72,42.07c-3.45,0-8.14,1.86-9.12,5.3v-4.66h-5.57v35.16h5.57v-14.96c.98,3.13,5.02,5.31,9.12,5.31,6.54,0,11.11-5.38,11.11-13.07s-4.57-13.07-11.11-13.07ZM162.71,63.13c-3.66,0-7.36-2.75-7.36-7.99,0-4.56,3.16-7.99,7.36-7.99s7.41,3.36,7.41,7.99-3.11,7.99-7.41,7.99Z"/>
          <path class="cls-1" d="M194.89,42.07c-3.45,0-8.14,1.86-9.12,5.3v-4.66h-5.57v35.16h5.57v-14.96c.98,3.13,5.02,5.31,9.12,5.31,6.54,0,11.11-5.38,11.11-13.07s-4.57-13.07-11.11-13.07ZM192.89,63.13c-3.66,0-7.36-2.75-7.36-7.99,0-4.56,3.16-7.99,7.36-7.99s7.41,3.36,7.41,7.99-3.11,7.99-7.41,7.99Z"/>
          <path class="cls-1" d="M264.1,47.9v-5.2h-5.57v24.87h5.62v-13.07c0-3.1,1.9-6.23,6.13-6.23h2.88v-6.01c-4.71.1-8.36,2.88-9.06,5.64Z"/>
        </g>
      </g>
    </g>
  </g>
</svg>